inDegrees=no
num_controls=7
num_derivatives=13
num_iterations=82
num_multipliers=7
num_parameters=0
num_slacks=7
num_states=26
objective=0.469928
objective_accelerations=0.064625
objective_balance=0.002053
objective_effort=0.020668
objective_height=0.372978
objective_ligament=0.009604
solver_duration=1114.836931
status=Solve_Succeeded
success=true
DataType=double
version=3
OpenSimVersion=4.5
endheader
time	/jointset/ground_pelvis/pelvis_tilt/value	/jointset/ground_pelvis/pelvis_tx/value	/jointset/ground_pelvis/pelvis_ty/value	/jointset/hip_l/hip_flexion_l/value	/jointset/hip_l/hip_adduction_l/value	/jointset/hip_l/hip_rotation_l/value	/jointset/back/lumbar_extension/value	/jointset/patellofemoral_l/patellar_flexion_l/value	/jointset/knee_l/knee_flexion_l/value	/jointset/knee_l/knee_adduction_l/value	/jointset/knee_l/knee_rotation_l/value	/jointset/ankle_l/ankle_angle_l/value	/jointset/subtalar_l/subtalar_angle_l/value	/jointset/ground_pelvis/pelvis_tilt/speed	/jointset/ground_pelvis/pelvis_tx/speed	/jointset/ground_pelvis/pelvis_ty/speed	/jointset/hip_l/hip_flexion_l/speed	/jointset/hip_l/hip_adduction_l/speed	/jointset/hip_l/hip_rotation_l/speed	/jointset/back/lumbar_extension/speed	/jointset/patellofemoral_l/patellar_flexion_l/speed	/jointset/knee_l/knee_flexion_l/speed	/jointset/knee_l/knee_adduction_l/speed	/jointset/knee_l/knee_rotation_l/speed	/jointset/ankle_l/ankle_angle_l/speed	/jointset/subtalar_l/subtalar_angle_l/speed	/forceset/tau_hip_flexion_l	/forceset/tau_hip_adduction_l	/forceset/tau_hip_rotation_l	/forceset/tau_knee_flexion_l	/forceset/tau_ankle_angle_l	/forceset/tau_subtalar_angle_l	/forceset/tau_lumbar_extension	lambda_cid13_p0	lambda_cid13_p1	lambda_cid13_p2	lambda_cid13_p3	lambda_cid13_p4	lambda_cid13_p5	lambda_cid14_p0	/jointset/ground_pelvis/pelvis_tilt/accel	/jointset/ground_pelvis/pelvis_tx/accel	/jointset/ground_pelvis/pelvis_ty/accel	/jointset/hip_l/hip_flexion_l/accel	/jointset/hip_l/hip_adduction_l/accel	/jointset/hip_l/hip_rotation_l/accel	/jointset/back/lumbar_extension/accel	/jointset/patellofemoral_l/patellar_flexion_l/accel	/jointset/knee_l/knee_flexion_l/accel	/jointset/knee_l/knee_adduction_l/accel	/jointset/knee_l/knee_rotation_l/accel	/jointset/ankle_l/ankle_angle_l/accel	/jointset/subtalar_l/subtalar_angle_l/accel	gamma_cid13_p0	gamma_cid13_p1	gamma_cid13_p2	gamma_cid13_p3	gamma_cid13_p4	gamma_cid13_p5	gamma_cid14_p0
0.5	-0.4196918235694184	-0.06549050040559057	0.7746819728653906	1.193252668019076	-0.3529644156310987	-0.06329045963763673	-0.4075572483107022	0.7168726456821467	0.7168726456823419	-0.05365760237149181	-0.1744893773252651	0.04866459272402637	0.08273504532653088	-1.320239559245252	-0.4046622061072073	-0.5078014694758118	2.911805294361757	0.04309885622292128	0.4402419221119676	-0.2896695225441589	1.362024779825129	1.362024779825489	0.2103995245370828	0.0006204616362404853	-0.1275543042135485	0.001518619639582208	-0.1677897189547659	0.02001509628467215	0.005183210168103422	-0.1431886494260087	0.09865337056047112	-0.007366231476831107	0.1513922111685649	6.104421002436879	2.805564117159999	-1.499591405941697	-8.293437818781216	-434.930832426106	-51.45414210268588	-14.50102691484599	0.5392882127402566	0.7176448075151775	-0.3896181588400126	-1.742292579977959	0.09964322569758223	-0.3602757835451139	1.624921932066585	-1.050719356490335	-1.050719356490345	-0.4533690839510542	0.07446362640804464	0.0220580528414536	0.113361922088878	-3.064990027313158e-09	-1.381617932546951e-06	-6.520337399357123e-07	-2.977433834337186e-07	-2.516331154712103e-07	2.211882918239688e-07	-1.703903318802989e-07
0.51	-0.4328644586373103	-0.06950070663563697	0.7695857750751165	1.22227817620683	-0.3525293949962607	-0.05891007210700844	-0.4103737494349205	0.730438044001346	0.7304380440013599	-0.05157610087594448	-0.1744831394251263	0.04739000431651328	0.082754902721056	-1.314109262425698	-0.3973341485741188	-0.5113187428606834	2.892894232415944	0.04388963429876314	0.4358141267306717	-0.27362244285579	1.35084596793047	1.350845967930692	0.2058614470384256	0.0006421985563051715	-0.1273601864788954	0.002437420429657119	-0.174863751448231	0.02088975045334735	0.004712098327204086	-0.1432415814642379	0.09998164240326021	-0.006665841561467447	0.156297287045524	6.372009944210113	2.57272527299693	-1.597475540059436	-8.551046711855411	-438.6641258558115	-51.48844074518866	-13.94579662368339	0.6766051868333424	0.747054310319725	-0.3149207756405811	-2.02585479636059	0.06679997832059908	-0.4873518073536359	1.595839903765174	-1.182768699708675	-1.182768699729328	-0.4602588573130149	-0.0318147086331509	0.0185055744565035	0.07915943656026159	8.342441079577673e-09	-1.360774921508366e-06	-7.393836267456998e-07	-3.063437541037601e-07	-2.116067810686741e-07	2.181728382876407e-07	-1.56649110153224e-07
0.52	-0.4459704497829511	-0.07343629867352966	0.7644579767815275	1.251102505416229	-0.352086865604706	-0.05457462660858229	-0.4130295319789463	0.7438853928828439	0.7438853928826847	-0.04954122651026033	-0.1744762528424822	0.04611744047448288	0.08278355217930057	-1.306910774795336	-0.3897393676764646	-0.5141215701387464	2.871569498691022	0.04460060756633297	0.4312535156721019	-0.2575258065056976	1.338414892285612	1.338414892285697	0.2010740985601677	0.0007501981388166563	-0.1271493911170716	0.00327703238346993	-0.1819377839417124	0.02176440462200611	0.004240986486385421	-0.1432945135024699	0.1013099142460461	-0.005965451646122821	0.1612023629224698	6.639126047895922	2.340122991388109	-1.695573540241188	-8.80648107642261	-442.4022095824906	-51.53622443867702	-13.39403070270284	0.7529263749017342	0.7709894804283198	-0.246728937478305	-2.225026935799971	0.08368226404317562	-0.3868389189999215	1.634833264411248	-1.301172106530121	-1.301172106530035	-0.5032232798712148	0.09171615889738197	0.0253935782756222	0.0975241548364468	-1.006325964086405e-08	-1.146228615295721e-06	-4.696784480436795e-07	-2.624370361412824e-07	-2.27934512200073e-07	2.561835559766698e-07	-1.618113370982445e-07
0.53	-0.4589993549161616	-0.0772946581179917	0.7593057484596984	1.27970184016206	-0.351637617374627	-0.0502850135845494	-0.4155242111344517	0.7572022690872124	0.7572022690871272	-0.04755557660723445	-0.1744674961851969	0.04484712826094731	0.08282022548066706	-1.29870912597696	-0.3818922242360674	-0.5162000428900008	2.847913872759121	0.04525060733889024	0.4265441489230445	-0.2414209314883804	1.324756371873423	1.32475637187367	0.1961130993914206	0.0009502075939146332	-0.1269009426827565	0.004064333309829538	-0.1888030833873314	0.02243536247988425	0.003694429710643569	-0.1437010425510462	0.1031271263309752	-0.005328067075795575	0.1659098439578386	7.055534245523313	2.124079048398736	-1.813827285166834	-9.171731699883615	-446.2251711954679	-51.5969012116393	-12.84588734626677	0.8779271894210443	0.797573447828819	-0.1698460455345729	-2.493395633275937	0.05611462319712322	-0.5318504765371151	1.596678586435341	-1.428755611181405	-1.428755611157144	-0.4841873907560093	-0.02351112995753307	0.02634421881189385	0.07054174106531359	-5.273466642763483e-08	-8.050459471562511e-07	7.396691107534309e-08	-1.744961886470716e-07	-2.824810009763026e-07	3.425089940442564e-07	-1.837664073808804e-07
0.54	-0.4719414149503637	-0.08107334679365305	0.7541364474900396	1.308053105606295	-0.3511817779889556	-0.0460462672127436	-0.4178581687465752	0.7703764473669351	0.7703764473669275	-0.04561786652696462	-0.1744582703271157	0.04357965528031553	0.08286501352720307	-1.289541754993965	-0.3738052139163309	-0.5175360997046745	2.821955638371592	0.04591883868485361	0.4210801852268481	-0.2253814978293291	1.309875307356509	1.309875307356917	0.1914861340074904	0.0008440382980711013	-0.1265815445363438	0.004899981417372737	-0.1956683828329607	0.02310632033775628	0.003147872934920873	-0.1441075715996216	0.1049443384159046	-0.004690682505474772	0.1706173249931974	7.47094037901717	1.907760324948046	-1.931523355908366	-9.539921894616999	-450.0658981647525	-51.6833334917516	-12.30173366965057	0.9460708078255586	0.8189628562962012	-0.09824575016216623	-2.685548626925312	0.08732857872439345	-0.5377583084277372	1.621744992758062	-1.545680927475382	-1.545680927475383	-0.4364165229078695	0.03048040870906354	0.03958352069514415	0.1071935910731543	-1.222532373728976e-07	-3.237549636934827e-07	9.206950229961588e-07	-3.783672975604935e-08	-3.793120726787282e-07	4.822890163604603e-07	-2.243007936966228e-07
0.55	-0.4847870207037987	-0.08477007254007608	0.7489574861114626	1.336133424276226	-0.3507198382589339	-0.04186155735317867	-0.4200322006939771	0.7833957302434661	0.7833957302433309	-0.04372850643609896	-0.1744488102315643	0.04231549833946358	0.08291756997222112	-1.279419393744401	-0.3655107749458869	-0.5181320992797148	2.793741708465784	0.04646453200509445	0.415767210395264	-0.2094531689509614	1.29379067334771	1.29379067334801	0.1864176613842852	0.001010751274112605	-0.1262413254814963	0.005610212059537381	-0.2025589013626924	0.02367063360107656	0.002615851314361208	-0.1443312487037488	0.1063852390572559	-0.004115387638787338	0.1752581187726366	7.759852212886667	1.729184133084462	-2.042247905274015	-9.747683110356858	-453.8740621605103	-51.70216359519272	-11.76198887045682	1.069285981559895	0.8390658217168705	-0.02175197733830159	-2.944315170427352	0.03737959894866372	-0.5424698056620169	1.57413524038691	-1.668394545773978	-1.668394545790171	-0.5372872168632106	0.004462655657032968	0.03252051127770837	0.052619768240754	-1.569457539546997e-07	-4.182815628350688e-08	1.371825149005176e-06	3.895189499780076e-08	-4.159922643945828e-07	5.587926059777116e-07	-2.410607350070559e-07
0.5600000000000001	-0.4975266094051292	-0.08838297761593496	0.7437762697539027	1.363920603647496	-0.3502526036176549	-0.0377328577889565	-0.4220477976715931	0.7962484587982708	0.7962484587980071	-0.04188887598843674	-0.1744387438235278	0.04105499947183978	0.08297716511715135	-1.268338344573319	-0.357041079803505	-0.5179870955012872	2.763327778639223	0.04697782093632417	0.4098781261581499	-0.1936945038721637	1.276564443011236	1.276564443011428	0.1815402053676253	0.0009653007943678997	-0.1258499298907225	0.006307721399807498	-0.2094494198924305	0.02423494686439899	0.002083829693787557	-0.1445549258078739	0.1078261396986096	-0.003540092772096937	0.1798989125520681	8.048507496448092	1.549086228769496	-2.150939964801068	-9.97592800178931	-457.6973832171163	-51.78056035541572	-11.22718699747466	1.137808392129223	0.8540140906837798	0.0499549205314008	-3.125548611075778	0.08084770092216582	-0.6529801895337457	1.587812232844043	-1.77400019301062	-1.77400019301057	-0.3982132015988317	-0.01195228244818907	0.04981882788041087	0.1046493306942401	-1.498470053003503e-07	8.616398631256456e-10	1.34823769192005e-06	4.389551878704665e-08	-3.804914001265545e-07	5.593644763562223e-07	-2.292913423111188e-07
